<svg width="20" height="15" viewBox="0 0 20 15" fill="none" xmlns="http://www.w3.org/2000/svg">
<path d="M18.7597 4.08214L9.91035 0.0671738C9.71364 -0.0223913 9.48722 -0.0223913 9.29051 0.0671738L0.44029 4.08C0.172433 4.20137 0 4.46881 0 4.76303C0 5.05684 0.172018 5.3247 0.439875 5.44565L4.16641 7.1369V10.2181V10.2206V13.7254C4.16641 14.1393 4.50248 14.4754 4.91641 14.4754C5.33033 14.4754 5.66641 14.1393 5.66641 13.7254V11.7918C6.82784 12.5363 8.17923 12.9414 9.60059 12.9414C11.5865 12.9414 13.4402 12.1642 14.8213 10.7533C14.9586 10.6136 15.0348 10.4252 15.0348 10.2289V7.1385L18.7597 5.44929C19.028 5.32624 19.2004 5.05922 19.2004 4.76458C19.2004 4.47077 19.028 4.20375 18.7597 4.08196L18.7597 4.08214ZM13.5343 9.91093C12.4638 10.8991 11.0784 11.4402 9.6006 11.4402C8.12031 11.4402 6.73742 10.8919 5.66556 9.90128V7.81746L9.28913 9.46103C9.38749 9.5054 9.4938 9.52758 9.59926 9.52758C9.70473 9.52758 9.81104 9.5054 9.90938 9.46103L13.5347 7.81703L13.5343 9.91093ZM9.60017 7.95428L6.71063 6.6435L9.91785 5.14521C10.2928 4.96985 10.4556 4.5237 10.2803 4.1487C10.1045 3.7737 9.65794 3.61006 9.28294 3.78625L4.91312 5.82743L2.56648 4.76312L9.60148 1.57347L16.6352 4.7643L9.60017 7.95428Z" fill="#858585"/>
</svg>
