<svg width="13" height="20" viewBox="0 0 13 20" fill="none" xmlns="http://www.w3.org/2000/svg">
<path d="M7.79988 5.94001C7.79988 6.86788 7.02101 7.62 6.0601 7.62C5.09919 7.62 4.32031 6.86792 4.32031 5.94001C4.32031 5.0121 5.09919 4.26001 6.0601 4.26001C7.02101 4.26001 7.79988 5.0121 7.79988 5.94001" fill="#858585"/>
<path d="M6.05989 0C2.75979 0 0 2.76021 0 6.18C0 9.3001 4.85989 17.88 5.39978 18.84C5.5199 19.0798 5.75972 19.1999 6.05981 19.1999C6.35989 19.1999 6.59971 19.0798 6.71983 18.84C7.25973 17.8799 12.1196 9.23978 12.1196 6.18C12.1196 2.76021 9.35983 0 6.05972 0H6.05989ZM6.05989 16.92C4.37989 13.7999 1.5 8.15978 1.5 6.18C1.5 3.60021 3.53989 1.5 6.05989 1.5C8.57989 1.5 10.6198 3.60021 10.6198 6.18C10.6198 8.15968 7.73989 13.7997 6.05989 16.92Z" fill="#858585"/>
</svg>
